# xmcd
#
# Track frame offsets:
#	150
#	16471
#	31622
#	47275
#	62313
#	79403
#	101610
#	111992
#	128421
#	141733
#	158787
#	171320
#	189625
#	206526
#	222513
#	240462
#	256159
#	269362
#	284669
#	302894
#	320475
#
# Disc length: 4294 seconds
#
# Revision: 3
# Processed by: cddbd v1.5.1PL0 Copyright (c) Steve Scherf et al.
# Submitted via: EasyCDDAExtractor 6.2.0.3
#
DISCID=3010c415
DTITLE=Rapazolla
DYEAR=2004
DGENRE=Pop
TTITLE0=Ninguem e de ninguem
TTITLE1=Maimbe
TTITLE2=Solteiro em Salvador
TTITLE3=Thibiron
TTITLE4=Pout-Pourri Arrocha
TTITLE5=Pout-Pourri
TTITLE6=Patricinha
TTITLE7=Ela chorou de amor
TTITLE8=Miami
TTITLE9=Te Mete
TTITLE10=Uisminofay
TTITLE11=Sorte grande
TTITLE12=Coracao
TTITLE13=Toda menina baiana
TTITLE14=Elevador
TTITLE15=Minha vida e voce
TTITLE16=Reggae Night
TTITLE17=Fascina
TTITLE18=Encarca - Lo dente
TTITLE19=Pauleira
TTITLE20=Contatos para show
EXTD=
EXTT0=
EXTT1=
EXTT2=
EXTT3=
EXTT4=
EXTT5=
EXTT6=
EXTT7=
EXTT8=
EXTT9=
EXTT10=
EXTT11=
EXTT12=
EXTT13=
EXTT14=
EXTT15=
EXTT16=
EXTT17=
EXTT18=
EXTT19=
EXTT20=
PLAYORDER=
